STARTFONT 2.1
FONT -Fondu-Times-Medium-R-Normal--24-230-75-75-P-124-MacRoman-1
SIZE 23 75 75
FONTBOUNDINGBOX 23 24 -3 -6
COMMENT Created by Fondu from a mac NFNT/FONT resource
STARTPROPERTIES 17
FOUNDRY "Fondu"
FAMILY_NAME "Times"
WEIGHT_NAME "Medium"
SLANT "R"
SETWIDTH_NAME "Normal"
ADD_STYLE_NAME ""
PIXEL_SIZE 24
POINT_SIZE 230
RESOLUTION_X 75
RESOLUTION_Y 75
SPACING "P"
AVERAGE_WIDTH 124
CHARSET_REGISTRY "MacRoman"
CHARSET_ENCODING "1"
FONT_ASCENT 18
FONT_DESCENT 6
FACE_NAME "Times"
ENDPROPERTIES
CHARS 223
STARTCHAR space
ENCODING 32
SWIDTH 250 0
DWIDTH 6 0
BBX 0 0 0 -6
BITMAP
ENDCHAR
STARTCHAR exclam
ENCODING 33
SWIDTH 333 0
DWIDTH 8 0
BBX 3 16 3 0
BITMAP
40
E0
E0
E0
E0
E0
E0
40
40
40
40
40
00
00
E0
E0
ENDCHAR
STARTCHAR quotedbl
ENCODING 34
SWIDTH 408 0
DWIDTH 10 0
BBX 5 5 2 11
BITMAP
88
88
88
88
88
ENDCHAR
STARTCHAR numbersign
ENCODING 35
SWIDTH 500 0
DWIDTH 12 0
BBX 11 14 0 1
BITMAP
0880
0880
0880
0880
7FE0
1100
1100
1100
1100
FFC0
2200
2200
2200
2200
ENDCHAR
STARTCHAR dollar
ENCODING 36
SWIDTH 500 0
DWIDTH 12 0
BBX 10 21 1 -3
BITMAP
0800
0800
3E00
6B80
C980
C880
E800
F800
7C00
3F00
0F80
0BC0
09C0
08C0
88C0
C880
E980
3E00
0800
0800
0800
ENDCHAR
STARTCHAR percent
ENCODING 37
SWIDTH 833 0
DWIDTH 20 0
BBX 16 17 2 0
BITMAP
0002
1E1C
73E8
6318
E330
C320
C660
C6C0
4D9C
3972
0363
06E3
04C3
0CC6
18C6
104C
2038
ENDCHAR
STARTCHAR ampersand
ENCODING 38
SWIDTH 778 0
DWIDTH 19 0
BBX 17 16 1 0
BITMAP
03C000
066000
0C6000
0C6000
0C4000
0CC000
071F00
0E0E00
370C00
630800
C39800
C1F000
C0E000
E07080
71BF00
1E0E00
ENDCHAR
STARTCHAR quotesingle
ENCODING 39
SWIDTH 180 0
DWIDTH 6 0
BBX 1 5 2 11
BITMAP
80
80
80
80
80
ENDCHAR
STARTCHAR parenleft
ENCODING 40
SWIDTH 333 0
DWIDTH 8 0
BBX 6 21 1 -5
BITMAP
04
08
10
30
20
60
40
C0
C0
C0
C0
C0
C0
C0
40
60
20
30
10
08
04
ENDCHAR
STARTCHAR parenright
ENCODING 41
SWIDTH 333 0
DWIDTH 8 0
BBX 6 21 1 -5
BITMAP
80
40
20
30
10
18
08
0C
0C
0C
0C
0C
0C
0C
08
18
10
30
20
40
80
ENDCHAR
STARTCHAR asterisk
ENCODING 42
SWIDTH 500 0
DWIDTH 12 0
BBX 7 8 2 8
BITMAP
10
92
54
38
38
54
92
10
ENDCHAR
STARTCHAR plus
ENCODING 43
SWIDTH 564 0
DWIDTH 14 0
BBX 11 11 1 0
BITMAP
0400
0400
0400
0400
0400
FFE0
0400
0400
0400
0400
0400
ENDCHAR
STARTCHAR comma
ENCODING 44
SWIDTH 250 0
DWIDTH 8 0
BBX 2 5 3 -3
BITMAP
80
C0
40
40
80
ENDCHAR
STARTCHAR hyphen
ENCODING 45
SWIDTH 333 0
DWIDTH 8 0
BBX 6 1 1 5
BITMAP
FC
ENDCHAR
STARTCHAR period
ENCODING 46
SWIDTH 250 0
DWIDTH 8 0
BBX 2 2 2 0
BITMAP
C0
C0
ENDCHAR
STARTCHAR slash
ENCODING 47
SWIDTH 278 0
DWIDTH 7 0
BBX 5 16 1 0
BITMAP
08
08
08
10
10
10
10
20
20
20
40
40
40
80
80
80
ENDCHAR
STARTCHAR zero
ENCODING 48
SWIDTH 500 0
DWIDTH 12 0
BBX 10 16 1 0
BITMAP
1E00
3300
6180
6180
C0C0
C0C0
C0C0
C0C0
C0C0
C0C0
C0C0
C0C0
6180
6180
3300
1E00
ENDCHAR
STARTCHAR one
ENCODING 49
SWIDTH 500 0
DWIDTH 12 0
BBX 6 16 3 0
BITMAP
10
30
70
B0
30
30
30
30
30
30
30
30
30
30
30
FC
ENDCHAR
STARTCHAR two
ENCODING 50
SWIDTH 500 0
DWIDTH 12 0
BBX 11 16 0 0
BITMAP
1E00
7F00
4380
8180
0180
0180
0180
0300
0300
0600
0400
0800
1000
2020
7FC0
FF80
ENDCHAR
STARTCHAR three
ENCODING 51
SWIDTH 500 0
DWIDTH 12 0
BBX 9 16 1 0
BITMAP
1C00
7E00
C700
8300
0300
0600
0C00
1E00
0300
0180
0180
0180
0180
C100
E300
7C00
ENDCHAR
STARTCHAR four
ENCODING 52
SWIDTH 500 0
DWIDTH 12 0
BBX 11 16 0 0
BITMAP
0080
0180
0380
0780
0D80
1980
3180
6180
C180
FFE0
FFE0
0180
0180
0180
0180
0180
ENDCHAR
STARTCHAR five
ENCODING 53
SWIDTH 500 0
DWIDTH 12 0
BBX 11 16 0 0
BITMAP
0FE0
1FC0
1000
3000
2000
7E00
0F80
0380
01C0
00C0
00C0
00C0
0080
C180
E300
7C00
ENDCHAR
STARTCHAR six
ENCODING 54
SWIDTH 500 0
DWIDTH 12 0
BBX 10 16 1 0
BITMAP
03C0
0E00
1800
3000
6000
6000
DE00
E380
C180
C0C0
C0C0
C0C0
C0C0
6180
7380
1E00
ENDCHAR
STARTCHAR seven
ENCODING 55
SWIDTH 500 0
DWIDTH 12 0
BBX 10 16 1 0
BITMAP
3FC0
7FC0
80C0
00C0
0180
0180
0300
0300
0600
0600
0C00
0C00
0C00
1800
1800
1800
ENDCHAR
STARTCHAR eight
ENCODING 56
SWIDTH 500 0
DWIDTH 12 0
BBX 10 16 1 0
BITMAP
1E00
3300
6180
6180
6180
7380
3F00
1E00
3700
6380
C1C0
C0C0
C0C0
C0C0
6180
1E00
ENDCHAR
STARTCHAR nine
ENCODING 57
SWIDTH 500 0
DWIDTH 12 0
BBX 10 16 1 0
BITMAP
1E00
7380
6180
C0C0
C0C0
C0C0
C0C0
61C0
73C0
1EC0
0080
0180
0300
0600
1C00
7000
ENDCHAR
STARTCHAR colon
ENCODING 58
SWIDTH 278 0
DWIDTH 7 0
BBX 2 11 2 0
BITMAP
C0
C0
00
00
00
00
00
00
00
C0
C0
ENDCHAR
STARTCHAR semicolon
ENCODING 59
SWIDTH 278 0
DWIDTH 7 0
BBX 2 14 2 -3
BITMAP
C0
C0
00
00
00
00
00
00
00
80
C0
40
40
80
ENDCHAR
STARTCHAR less
ENCODING 60
SWIDTH 564 0
DWIDTH 14 0
BBX 10 9 1 1
BITMAP
00C0
0300
0C00
3000
C000
3000
0C00
0300
00C0
ENDCHAR
STARTCHAR equal
ENCODING 61
SWIDTH 564 0
DWIDTH 14 0
BBX 12 5 1 3
BITMAP
FFF0
0000
0000
0000
FFF0
ENDCHAR
STARTCHAR greater
ENCODING 62
SWIDTH 564 0
DWIDTH 14 0
BBX 10 9 2 1
BITMAP
C000
3000
0C00
0300
00C0
0300
0C00
3000
C000
ENDCHAR
STARTCHAR question
ENCODING 63
SWIDTH 444 0
DWIDTH 11 0
BBX 8 16 2 0
BITMAP
3C
66
C3
C3
E3
66
06
0C
08
18
10
10
00
00
18
18
ENDCHAR
STARTCHAR at
ENCODING 64
SWIDTH 921 0
DWIDTH 22 0
BBX 20 19 1 -3
BITMAP
01FE00
060180
1C00C0
380060
303620
60CE10
618610
C30610
C30610
C60C10
C60C30
C60C20
C71C60
C3EFC0
41C780
600000
300000
1C0C00
03F000
ENDCHAR
STARTCHAR A
ENCODING 65
SWIDTH 722 0
DWIDTH 17 0
BBX 17 16 0 0
BITMAP
008000
008000
00C000
01C000
016000
026000
023000
043000
041800
081800
0FFC00
100C00
100C00
200600
200600
F83F80
ENDCHAR
STARTCHAR B
ENCODING 66
SWIDTH 667 0
DWIDTH 16 0
BBX 12 16 2 0
BITMAP
FF00
60C0
6060
6060
6060
6060
60C0
7F80
60C0
6060
6070
6070
6070
6060
60E0
FF80
ENDCHAR
STARTCHAR C
ENCODING 67
SWIDTH 667 0
DWIDTH 16 0
BBX 14 16 1 0
BITMAP
07E4
181C
300C
6004
6004
C000
C000
C000
C000
C000
C000
6000
6004
300C
1818
07E0
ENDCHAR
STARTCHAR D
ENCODING 68
SWIDTH 722 0
DWIDTH 17 0
BBX 14 16 1 0
BITMAP
FF80
30E0
3030
3018
3018
300C
300C
300C
300C
300C
300C
3018
3018
3030
30E0
FF80
ENDCHAR
STARTCHAR E
ENCODING 69
SWIDTH 611 0
DWIDTH 15 0
BBX 13 16 1 0
BITMAP
FFF8
3018
3008
3000
3000
3020
3060
3FE0
3060
3020
3000
3000
3008
3008
3018
FFF8
ENDCHAR
STARTCHAR F
ENCODING 70
SWIDTH 556 0
DWIDTH 13 0
BBX 11 16 1 0
BITMAP
FFE0
6060
6020
6000
6000
6080
6180
7F80
6180
6080
6000
6000
6000
6000
6000
FC00
ENDCHAR
STARTCHAR G
ENCODING 71
SWIDTH 722 0
DWIDTH 17 0
BBX 16 16 1 0
BITMAP
07E4
1C1C
300C
6004
6000
C000
C000
C03F
C00C
C00C
C00C
600C
600C
300C
1C18
07E0
ENDCHAR
STARTCHAR H
ENCODING 72
SWIDTH 722 0
DWIDTH 17 0
BBX 15 16 1 0
BITMAP
FC7E
3018
3018
3018
3018
3018
3018
3FF8
3018
3018
3018
3018
3018
3018
3018
FC7E
ENDCHAR
STARTCHAR I
ENCODING 73
SWIDTH 333 0
DWIDTH 8 0
BBX 6 16 1 0
BITMAP
FC
30
30
30
30
30
30
30
30
30
30
30
30
30
30
FC
ENDCHAR
STARTCHAR J
ENCODING 74
SWIDTH 389 0
DWIDTH 9 0
BBX 9 16 0 0
BITMAP
1F80
0600
0600
0600
0600
0600
0600
0600
0600
0600
0600
0600
0600
C600
CC00
7800
ENDCHAR
STARTCHAR K
ENCODING 75
SWIDTH 722 0
DWIDTH 17 0
BBX 15 16 1 0
BITMAP
FCFC
3030
3060
30C0
3180
3300
3600
3C00
3600
3300
3180
30C0
3060
3030
3018
FC7E
ENDCHAR
STARTCHAR L
ENCODING 76
SWIDTH 611 0
DWIDTH 15 0
BBX 13 16 1 0
BITMAP
FC00
3000
3000
3000
3000
3000
3000
3000
3000
3000
3000
3000
3008
3018
3038
FFF0
ENDCHAR
STARTCHAR M
ENCODING 77
SWIDTH 889 0
DWIDTH 21 0
BBX 19 16 1 0
BITMAP
F003E0
300380
380580
380580
2C0580
2C0980
260980
260980
231180
231180
219180
21A180
20E180
20E180
204180
F847E0
ENDCHAR
STARTCHAR N
ENCODING 78
SWIDTH 722 0
DWIDTH 17 0
BBX 17 16 0 0
BITMAP
F00F80
380200
1C0200
1C0200
160200
130200
118200
10C200
10C200
106200
103200
101A00
100E00
100E00
100600
FC0200
ENDCHAR
STARTCHAR O
ENCODING 79
SWIDTH 722 0
DWIDTH 17 0
BBX 15 16 1 0
BITMAP
07C0
1830
3018
600C
600C
C006
C006
C006
C006
C006
C006
600C
600C
3018
1830
07C0
ENDCHAR
STARTCHAR P
ENCODING 80
SWIDTH 556 0
DWIDTH 13 0
BBX 12 16 0 0
BITMAP
FF80
30E0
3060
3070
3070
3070
3060
30E0
3F80
3000
3000
3000
3000
3000
3000
FC00
ENDCHAR
STARTCHAR Q
ENCODING 81
SWIDTH 722 0
DWIDTH 17 0
BBX 15 20 1 -4
BITMAP
07C0
1830
3018
600C
600C
C006
C006
C006
C006
C006
C006
600C
600C
3018
1830
07C0
0380
0180
00C0
0030
ENDCHAR
STARTCHAR R
ENCODING 82
SWIDTH 667 0
DWIDTH 16 0
BBX 15 16 0 0
BITMAP
FF80
30E0
3060
3070
3070
3070
3060
30E0
3F80
3700
3380
31C0
30E0
3070
3038
FC1E
ENDCHAR
STARTCHAR S
ENCODING 83
SWIDTH 556 0
DWIDTH 13 0
BBX 11 16 1 0
BITMAP
1E40
61C0
C0C0
C040
C000
6000
7800
1E00
0780
01C0
00E0
8060
8060
C060
E0C0
9F00
ENDCHAR
STARTCHAR T
ENCODING 84
SWIDTH 611 0
DWIDTH 15 0
BBX 14 16 0 0
BITMAP
FFFC
C30C
8304
8304
0300
0300
0300
0300
0300
0300
0300
0300
0300
0300
0300
0FC0
ENDCHAR
STARTCHAR U
ENCODING 85
SWIDTH 722 0
DWIDTH 17 0
BBX 16 16 0 0
BITMAP
FC1F
3004
3004
3004
3004
3004
3004
3004
3004
3004
3004
3004
3004
1808
1C18
07E0
ENDCHAR
STARTCHAR V
ENCODING 86
SWIDTH 722 0
DWIDTH 17 0
BBX 17 16 0 0
BITMAP
FC0F80
300200
180200
180400
0C0400
0C0400
060800
060800
031000
031000
019000
01A000
00E000
00E000
004000
004000
ENDCHAR
STARTCHAR W
ENCODING 87
SWIDTH 944 0
DWIDTH 23 0
BBX 21 16 1 0
BITMAP
F9FCF8
707020
303020
303040
303040
185840
185880
185880
0C8C80
0C8D00
0C8D00
070700
070700
070700
020200
020200
ENDCHAR
STARTCHAR X
ENCODING 88
SWIDTH 722 0
DWIDTH 17 0
BBX 15 16 1 0
BITMAP
FC7E
3018
1810
0C20
0C20
0640
0340
0380
0180
02C0
0460
0460
0830
1038
3018
FC7E
ENDCHAR
STARTCHAR Y
ENCODING 89
SWIDTH 722 0
DWIDTH 17 0
BBX 15 16 1 0
BITMAP
FC3E
3808
1808
0C10
0C10
0620
0620
0340
03C0
0180
0180
0180
0180
0180
0180
07E0
ENDCHAR
STARTCHAR Z
ENCODING 90
SWIDTH 611 0
DWIDTH 15 0
BBX 13 16 1 0
BITMAP
FFF8
C030
8060
00C0
0180
0180
0300
0600
0600
0C00
1800
3000
3000
6008
C018
FFF8
ENDCHAR
STARTCHAR bracketleft
ENCODING 91
SWIDTH 333 0
DWIDTH 8 0
BBX 5 21 2 -5
BITMAP
F8
C0
C0
C0
C0
C0
C0
C0
C0
C0
C0
C0
C0
C0
C0
C0
C0
C0
C0
C0
F8
ENDCHAR
STARTCHAR backslash
ENCODING 92
SWIDTH 278 0
DWIDTH 7 0
BBX 5 16 1 0
BITMAP
80
80
80
40
40
40
20
20
20
20
10
10
10
08
08
08
ENDCHAR
STARTCHAR bracketright
ENCODING 93
SWIDTH 333 0
DWIDTH 8 0
BBX 5 21 1 -5
BITMAP
F8
18
18
18
18
18
18
18
18
18
18
18
18
18
18
18
18
18
18
18
F8
ENDCHAR
STARTCHAR asciicircum
ENCODING 94
SWIDTH 469 0
DWIDTH 11 0
BBX 7 8 2 8
BITMAP
10
10
28
28
44
44
82
82
ENDCHAR
STARTCHAR underscore
ENCODING 95
SWIDTH 500 0
DWIDTH 12 0
BBX 12 1 0 -5
BITMAP
FFF0
ENDCHAR
STARTCHAR grave
ENCODING 96
SWIDTH 333 0
DWIDTH 8 0
BBX 4 4 2 12
BITMAP
80
40
20
10
ENDCHAR
STARTCHAR a
ENCODING 97
SWIDTH 444 0
DWIDTH 11 0
BBX 10 11 1 0
BITMAP
1E00
6300
E300
C300
0F00
3300
6300
C300
C700
FB40
7180
ENDCHAR
STARTCHAR b
ENCODING 98
SWIDTH 500 0
DWIDTH 12 0
BBX 10 16 0 0
BITMAP
2000
6000
E000
6000
6000
6700
6F80
71C0
60C0
60C0
60C0
60C0
60C0
6080
3180
1E00
ENDCHAR
STARTCHAR c
ENCODING 99
SWIDTH 444 0
DWIDTH 11 0
BBX 9 11 1 0
BITMAP
1F00
7380
6180
C000
C000
C000
C000
C080
6180
7F00
1C00
ENDCHAR
STARTCHAR d
ENCODING 100
SWIDTH 500 0
DWIDTH 12 0
BBX 10 16 1 0
BITMAP
0080
0180
0380
0180
0180
1D80
7380
6180
C180
C180
C180
C180
C180
61C0
7380
3D00
ENDCHAR
STARTCHAR e
ENCODING 101
SWIDTH 444 0
DWIDTH 11 0
BBX 9 11 1 0
BITMAP
1E00
6300
4180
C180
FF80
C000
C000
C000
6080
7F00
1E00
ENDCHAR
STARTCHAR f
ENCODING 102
SWIDTH 333 0
DWIDTH 8 0
BBX 8 16 0 0
BITMAP
0E
13
31
30
30
FC
30
30
30
30
30
30
30
30
30
FC
ENDCHAR
STARTCHAR g
ENCODING 103
SWIDTH 500 0
DWIDTH 12 0
BBX 11 17 0 -6
BITMAP
1F60
3380
6180
6180
6180
6180
3300
3E00
6000
6000
3F80
5FC0
80C0
80C0
C080
FF00
7E00
ENDCHAR
STARTCHAR h
ENCODING 104
SWIDTH 500 0
DWIDTH 12 0
BBX 11 16 0 0
BITMAP
1000
3000
7000
3000
3000
3380
37C0
38C0
30C0
30C0
30C0
30C0
30C0
30C0
30C0
FDE0
ENDCHAR
STARTCHAR i
ENCODING 105
SWIDTH 278 0
DWIDTH 7 0
BBX 6 16 0 0
BITMAP
30
30
00
00
00
10
30
F0
30
30
30
30
30
30
30
FC
ENDCHAR
STARTCHAR j
ENCODING 106
SWIDTH 278 0
DWIDTH 7 0
BBX 5 22 0 -6
BITMAP
18
18
00
00
00
08
18
78
18
18
18
18
18
18
18
18
18
18
18
D8
D0
60
ENDCHAR
STARTCHAR k
ENCODING 107
SWIDTH 500 0
DWIDTH 12 0
BBX 12 16 0 0
BITMAP
1000
3000
7000
3000
3000
33E0
3180
3300
3600
3C00
3C00
3600
3300
3180
30C0
FDF0
ENDCHAR
STARTCHAR l
ENCODING 108
SWIDTH 278 0
DWIDTH 7 0
BBX 6 16 0 0
BITMAP
10
30
70
30
30
30
30
30
30
30
30
30
30
30
30
FC
ENDCHAR
STARTCHAR m
ENCODING 109
SWIDTH 778 0
DWIDTH 19 0
BBX 18 11 0 0
BITMAP
138E00
37BF00
78E300
30C300
30C300
30C300
30C300
30C300
30C300
30C300
FBF7C0
ENDCHAR
STARTCHAR n
ENCODING 110
SWIDTH 500 0
DWIDTH 12 0
BBX 12 11 0 0
BITMAP
1380
37C0
78C0
30C0
30C0
30C0
30C0
30C0
30C0
30C0
FBF0
ENDCHAR
STARTCHAR o
ENCODING 111
SWIDTH 500 0
DWIDTH 12 0
BBX 10 11 1 0
BITMAP
1E00
7380
6180
C0C0
C0C0
C0C0
C0C0
C0C0
6180
7380
1E00
ENDCHAR
STARTCHAR p
ENCODING 112
SWIDTH 500 0
DWIDTH 12 0
BBX 11 17 0 -6
BITMAP
1700
3FC0
F8C0
3060
3060
3060
3060
3060
3040
38C0
3700
3000
3000
3000
3000
3000
FC00
ENDCHAR
STARTCHAR q
ENCODING 113
SWIDTH 500 0
DWIDTH 12 0
BBX 11 17 0 -6
BITMAP
1C80
7380
6180
C180
C180
C180
C180
C180
6380
7F80
1D80
0180
0180
0180
0180
0180
07E0
ENDCHAR
STARTCHAR r
ENCODING 114
SWIDTH 333 0
DWIDTH 8 0
BBX 8 11 0 0
BITMAP
26
6F
F3
60
60
60
60
60
60
60
F8
ENDCHAR
STARTCHAR s
ENCODING 115
SWIDTH 389 0
DWIDTH 9 0
BBX 7 11 1 0
BITMAP
7A
C6
C2
E0
78
3C
0E
06
86
CE
BC
ENDCHAR
STARTCHAR t
ENCODING 116
SWIDTH 278 0
DWIDTH 7 0
BBX 7 13 0 0
BITMAP
20
60
FC
60
60
60
60
60
60
60
62
7C
38
ENDCHAR
STARTCHAR u
ENCODING 117
SWIDTH 500 0
DWIDTH 12 0
BBX 11 11 0 0
BITMAP
F3C0
30C0
30C0
30C0
30C0
30C0
30C0
30C0
38C0
1FE0
0E80
ENDCHAR
STARTCHAR v
ENCODING 118
SWIDTH 500 0
DWIDTH 12 0
BBX 12 11 0 0
BITMAP
FCF0
3020
3020
1840
1840
0C80
0C80
0700
0700
0200
0200
ENDCHAR
STARTCHAR w
ENCODING 119
SWIDTH 722 0
DWIDTH 17 0
BBX 16 11 0 0
BITMAP
FBEF
30C2
30C2
1964
1964
1B6C
0A28
0E38
0E38
0410
0410
ENDCHAR
STARTCHAR x
ENCODING 120
SWIDTH 500 0
DWIDTH 12 0
BBX 11 11 0 0
BITMAP
F9E0
3080
3900
1900
0E00
0E00
0E00
1300
1380
2180
FBE0
ENDCHAR
STARTCHAR y
ENCODING 121
SWIDTH 500 0
DWIDTH 12 0
BBX 12 17 0 -6
BITMAP
F9F0
6020
3040
3040
1880
1880
0D00
0D00
0600
0600
0400
0C00
0800
1000
7000
E000
C000
ENDCHAR
STARTCHAR z
ENCODING 122
SWIDTH 444 0
DWIDTH 11 0
BBX 9 11 1 0
BITMAP
FF80
C300
8600
0600
0C00
1800
1800
3000
6080
6180
FF80
ENDCHAR
STARTCHAR braceleft
ENCODING 123
SWIDTH 480 0
DWIDTH 12 0
BBX 6 21 2 -5
BITMAP
0C
10
30
30
30
30
30
30
30
20
C0
20
30
30
30
30
30
30
30
10
0C
ENDCHAR
STARTCHAR bar
ENCODING 124
SWIDTH 200 0
DWIDTH 5 0
BBX 1 21 2 -5
BITMAP
80
80
80
80
80
80
80
80
80
80
80
80
80
80
80
80
80
80
80
80
80
ENDCHAR
STARTCHAR braceright
ENCODING 125
SWIDTH 480 0
DWIDTH 12 0
BBX 6 21 3 -5
BITMAP
C0
20
30
30
30
30
30
30
30
10
0C
10
30
30
30
30
30
30
30
20
C0
ENDCHAR
STARTCHAR asciitilde
ENCODING 126
SWIDTH 541 0
DWIDTH 13 0
BBX 10 3 2 7
BITMAP
3840
7F80
8700
ENDCHAR
STARTCHAR Adieresis
ENCODING 128
SWIDTH 722 0
DWIDTH 17 0
BBX 17 18 0 0
BITMAP
022000
000000
008000
008000
01C000
01C000
016000
026000
027000
043000
043800
081800
0FFC00
100C00
100E00
200600
200600
F83F80
ENDCHAR
STARTCHAR Aring
ENCODING 129
SWIDTH 722 0
DWIDTH 17 0
BBX 17 18 0 0
BITMAP
01C000
022000
022000
01C000
01C000
01C000
016000
026000
027000
043000
043800
081800
0FFC00
100C00
100E00
200600
200600
F83F80
ENDCHAR
STARTCHAR Ccedilla
ENCODING 130
SWIDTH 667 0
DWIDTH 16 0
BBX 14 21 1 -5
BITMAP
07E4
1E1C
380C
7004
7004
E000
E000
E000
E000
E000
E000
7000
7004
380C
1C18
07E0
0180
0040
0040
0080
0300
ENDCHAR
STARTCHAR Eacute
ENCODING 131
SWIDTH 611 0
DWIDTH 15 0
BBX 13 18 1 0
BITMAP
0100
0200
FFF8
3018
3008
3000
3000
3020
3060
3FE0
3060
3020
3000
3000
3008
3008
3018
FFF8
ENDCHAR
STARTCHAR Ntilde
ENCODING 132
SWIDTH 722 0
DWIDTH 17 0
BBX 16 18 0 0
BITMAP
0E20
11C0
E01F
7004
3804
3C04
2E04
2704
2304
2384
21C4
20C4
2064
2074
203C
201C
200C
F804
ENDCHAR
STARTCHAR Odieresis
ENCODING 133
SWIDTH 722 0
DWIDTH 17 0
BBX 15 18 1 0
BITMAP
0440
0000
07C0
1830
3018
600C
600C
C006
C006
C006
C006
C006
C006
600C
600C
3018
1830
07C0
ENDCHAR
STARTCHAR Udieresis
ENCODING 134
SWIDTH 722 0
DWIDTH 17 0
BBX 16 18 0 0
BITMAP
0420
0000
FC3F
3004
3004
3004
3004
3004
3004
3004
3004
3004
3004
3004
3804
1808
1E18
07E0
ENDCHAR
STARTCHAR aacute
ENCODING 135
SWIDTH 444 0
DWIDTH 11 0
BBX 10 15 1 0
BITMAP
0400
0800
1000
0000
1E00
6300
E300
C300
0F00
3300
6300
C300
C700
FB40
7180
ENDCHAR
STARTCHAR agrave
ENCODING 136
SWIDTH 444 0
DWIDTH 11 0
BBX 10 15 1 0
BITMAP
1000
0800
0400
0000
1E00
6300
E300
C300
0F00
3300
6300
C300
C700
FB40
7180
ENDCHAR
STARTCHAR acircumflex
ENCODING 137
SWIDTH 444 0
DWIDTH 11 0
BBX 10 15 1 0
BITMAP
1800
2400
4200
0000
1E00
6300
E300
C300
0F00
3300
6300
C300
C700
FB40
7180
ENDCHAR
STARTCHAR adieresis
ENCODING 138
SWIDTH 444 0
DWIDTH 11 0
BBX 10 14 1 0
BITMAP
1200
0000
0000
1E00
6300
E300
C300
0F00
3300
6300
C300
C700
FB40
7180
ENDCHAR
STARTCHAR atilde
ENCODING 139
SWIDTH 444 0
DWIDTH 11 0
BBX 10 14 1 0
BITMAP
7100
8E00
0000
1E00
6300
E300
C300
0F00
3300
6300
C300
C700
FB40
7180
ENDCHAR
STARTCHAR aring
ENCODING 140
SWIDTH 444 0
DWIDTH 11 0
BBX 10 16 1 0
BITMAP
0C00
1200
1200
0C00
0000
1E00
6300
E300
C300
0F00
3300
6300
C300
C700
FB40
7180
ENDCHAR
STARTCHAR ccedilla
ENCODING 141
SWIDTH 444 0
DWIDTH 11 0
BBX 9 15 1 -4
BITMAP
1F00
7380
6180
C000
C000
C000
C000
C080
6180
7F00
1C00
0800
0400
0400
1800
ENDCHAR
STARTCHAR eacute
ENCODING 142
SWIDTH 444 0
DWIDTH 11 0
BBX 9 15 1 0
BITMAP
0400
0800
1000
0000
1E00
6300
4180
C180
FF80
C000
C000
C000
6080
7F00
1E00
ENDCHAR
STARTCHAR egrave
ENCODING 143
SWIDTH 444 0
DWIDTH 11 0
BBX 9 15 1 0
BITMAP
1000
0800
0400
0000
1E00
6300
4180
C180
FF80
C000
C000
C000
6080
7F00
1E00
ENDCHAR
STARTCHAR ecircumflex
ENCODING 144
SWIDTH 444 0
DWIDTH 11 0
BBX 9 15 1 0
BITMAP
0C00
1200
2100
0000
1E00
6300
4180
C180
FF80
C000
C000
C000
6080
7F00
1E00
ENDCHAR
STARTCHAR edieresis
ENCODING 145
SWIDTH 444 0
DWIDTH 11 0
BBX 9 14 1 0
BITMAP
1200
0000
0000
1E00
6300
4180
C180
FF80
C000
C000
C000
6080
7F00
1E00
ENDCHAR
STARTCHAR iacute
ENCODING 146
SWIDTH 278 0
DWIDTH 7 0
BBX 6 15 0 0
BITMAP
10
20
40
00
10
30
F0
30
30
30
30
30
30
30
FC
ENDCHAR
STARTCHAR igrave
ENCODING 147
SWIDTH 278 0
DWIDTH 7 0
BBX 6 15 0 0
BITMAP
40
20
10
00
10
30
F0
30
30
30
30
30
30
30
FC
ENDCHAR
STARTCHAR icircumflex
ENCODING 148
SWIDTH 278 0
DWIDTH 7 0
BBX 6 15 0 0
BITMAP
10
28
44
00
10
30
F0
30
30
30
30
30
30
30
FC
ENDCHAR
STARTCHAR idieresis
ENCODING 149
SWIDTH 278 0
DWIDTH 7 0
BBX 6 13 0 0
BITMAP
48
00
10
30
F0
30
30
30
30
30
30
30
FC
ENDCHAR
STARTCHAR ntilde
ENCODING 150
SWIDTH 500 0
DWIDTH 12 0
BBX 12 15 0 0
BITMAP
1C40
2380
0000
0000
1380
37C0
F8C0
30C0
30C0
30C0
30C0
30C0
30C0
30C0
FBF0
ENDCHAR
STARTCHAR oacute
ENCODING 151
SWIDTH 500 0
DWIDTH 12 0
BBX 10 15 1 0
BITMAP
0400
0800
1000
0000
1E00
7380
6180
C0C0
C0C0
C0C0
C0C0
C0C0
6180
7380
1E00
ENDCHAR
STARTCHAR ograve
ENCODING 152
SWIDTH 500 0
DWIDTH 12 0
BBX 10 15 1 0
BITMAP
1000
0800
0400
0000
1E00
7380
6180
C0C0
C0C0
C0C0
C0C0
C0C0
6180
7380
1E00
ENDCHAR
STARTCHAR ocircumflex
ENCODING 153
SWIDTH 500 0
DWIDTH 12 0
BBX 10 15 1 0
BITMAP
0C00
1200
2100
0000
1E00
7380
6180
C0C0
C0C0
C0C0
C0C0
C0C0
6180
7380
1E00
ENDCHAR
STARTCHAR odieresis
ENCODING 154
SWIDTH 500 0
DWIDTH 12 0
BBX 10 14 1 0
BITMAP
1200
0000
0000
1E00
7380
6180
C0C0
C0C0
C0C0
C0C0
C0C0
6180
7380
1E00
ENDCHAR
STARTCHAR otilde
ENCODING 155
SWIDTH 500 0
DWIDTH 12 0
BBX 10 14 1 0
BITMAP
3880
4700
0000
1E00
7380
6180
C0C0
C0C0
C0C0
C0C0
C0C0
6180
7380
1E00
ENDCHAR
STARTCHAR uacute
ENCODING 156
SWIDTH 500 0
DWIDTH 12 0
BBX 11 15 0 0
BITMAP
0200
0400
0800
0000
F3C0
30C0
30C0
30C0
30C0
30C0
30C0
30C0
38C0
1FE0
0E80
ENDCHAR
STARTCHAR ugrave
ENCODING 157
SWIDTH 500 0
DWIDTH 12 0
BBX 11 15 0 0
BITMAP
0800
0400
0200
0000
F3C0
30C0
30C0
30C0
30C0
30C0
30C0
30C0
38C0
1FE0
0E80
ENDCHAR
STARTCHAR ucircumflex
ENCODING 158
SWIDTH 500 0
DWIDTH 12 0
BBX 11 15 0 0
BITMAP
0600
0900
1080
0000
F3C0
30C0
30C0
30C0
30C0
30C0
30C0
30C0
38C0
1FE0
0E80
ENDCHAR
STARTCHAR udieresis
ENCODING 159
SWIDTH 500 0
DWIDTH 12 0
BBX 11 14 0 0
BITMAP
1100
0000
0000
F3C0
30C0
30C0
30C0
30C0
30C0
30C0
30C0
38C0
1FE0
0E80
ENDCHAR
STARTCHAR dagger
ENCODING 160
SWIDTH 500 0
DWIDTH 12 0
BBX 8 20 1 -3
BITMAP
18
18
18
18
FF
18
18
18
18
18
18
18
18
18
18
18
18
18
18
18
ENDCHAR
STARTCHAR degree
ENCODING 161
SWIDTH 400 0
DWIDTH 7 0
BBX 5 5 1 11
BITMAP
70
88
88
88
70
ENDCHAR
STARTCHAR cent
ENCODING 162
SWIDTH 500 0
DWIDTH 12 0
BBX 9 15 1 -2
BITMAP
0200
0200
1F00
2580
4480
C400
C400
C800
C800
C800
6880
7F00
1E00
1000
1000
ENDCHAR
STARTCHAR sterling
ENCODING 163
SWIDTH 500 0
DWIDTH 12 0
BBX 11 16 0 0
BITMAP
0780
0CC0
1840
1800
1800
1800
1800
7E00
1800
1800
1800
1800
1800
7820
B7C0
E380
ENDCHAR
STARTCHAR section
ENCODING 164
SWIDTH 500 0
DWIDTH 12 0
BBX 8 20 2 -2
BITMAP
1C
26
42
60
70
38
3C
4E
87
83
C1
E1
72
3C
1C
0E
06
42
64
38
ENDCHAR
STARTCHAR bullet
ENCODING 165
SWIDTH 350 0
DWIDTH 8 0
BBX 6 6 1 5
BITMAP
78
FC
FC
FC
FC
78
ENDCHAR
STARTCHAR paragraph
ENCODING 166
SWIDTH 453 0
DWIDTH 11 0
BBX 9 22 1 -6
BITMAP
3F80
7900
F900
F900
F900
F900
F900
F900
F900
7900
3900
0900
0900
0900
0900
0900
0900
0900
0900
0900
0900
0900
ENDCHAR
STARTCHAR germandbls
ENCODING 167
SWIDTH 500 0
DWIDTH 12 0
BBX 11 16 0 0
BITMAP
1F00
3180
20C0
60C0
60C0
6080
6100
6380
60C0
6060
6060
6060
6060
6660
6640
E380
ENDCHAR
STARTCHAR registered
ENCODING 168
SWIDTH 760 0
DWIDTH 19 0
BBX 16 16 1 0
BITMAP
07E0
1818
300C
6006
4FC2
8661
8661
8661
87C1
86C1
8661
4F32
6006
300C
1818
07E0
ENDCHAR
STARTCHAR copyright
ENCODING 169
SWIDTH 760 0
DWIDTH 19 0
BBX 16 16 1 0
BITMAP
07E0
1818
300C
6006
43A2
8661
8C21
8C01
8C01
8C01
8621
43C2
6006
300C
1818
07E0
ENDCHAR
STARTCHAR trademark
ENCODING 170
SWIDTH 980 0
DWIDTH 22 0
BBX 19 7 1 9
BITMAP
FFC0E0
9961C0
187340
186E40
186440
186040
3CF0E0
ENDCHAR
STARTCHAR acute
ENCODING 171
SWIDTH 333 0
DWIDTH 8 0
BBX 4 4 2 12
BITMAP
30
60
C0
80
ENDCHAR
STARTCHAR dieresis
ENCODING 172
SWIDTH 333 0
DWIDTH 8 0
BBX 5 1 1 15
BITMAP
88
ENDCHAR
STARTCHAR notequal
ENCODING 173
SWIDTH 549 0
DWIDTH 13 0
BBX 12 9 0 1
BITMAP
0060
00C0
7FF0
0300
0600
0C00
FFE0
3000
6000
ENDCHAR
STARTCHAR AE
ENCODING 174
SWIDTH 889 0
DWIDTH 21 0
BBX 19 16 0 0
BITMAP
01FFE0
00E060
00E020
016000
016000
026080
026180
047F80
046180
0FE080
086000
106000
106000
206020
206060
F9FFE0
ENDCHAR
STARTCHAR Oslash
ENCODING 175
SWIDTH 722 0
DWIDTH 17 0
BBX 15 16 1 0
BITMAP
07C8
1830
3018
602C
604C
C046
C086
C106
C106
C206
C406
640C
680C
3018
1830
27C0
ENDCHAR
STARTCHAR infinity
ENCODING 176
SWIDTH 713 0
DWIDTH 17 0
BBX 15 7 0 3
BITMAP
3838
6C6C
C6C6
C386
C6C6
6C6C
3838
ENDCHAR
STARTCHAR plusminus
ENCODING 177
SWIDTH 549 0
DWIDTH 14 0
BBX 10 12 1 0
BITMAP
0C00
0C00
0C00
0C00
0C00
FFC0
0C00
0C00
0C00
0C00
0000
FFC0
ENDCHAR
STARTCHAR lessequal
ENCODING 178
SWIDTH 549 0
DWIDTH 14 0
BBX 10 11 1 0
BITMAP
00C0
0380
0E00
3800
E000
3800
0E00
0380
00C0
0000
FFC0
ENDCHAR
STARTCHAR greaterequal
ENCODING 179
SWIDTH 549 0
DWIDTH 14 0
BBX 10 11 1 0
BITMAP
C000
7000
1C00
0700
01C0
0700
1C00
7000
C000
0000
FFC0
ENDCHAR
STARTCHAR yen
ENCODING 180
SWIDTH 500 0
DWIDTH 12 0
BBX 12 16 0 0
BITMAP
FCF0
3040
3040
1880
1880
0D00
0D00
0600
3FC0
0600
3FC0
0600
0600
0600
0600
1F80
ENDCHAR
STARTCHAR mu
ENCODING 181
SWIDTH 576 0
DWIDTH 14 0
BBX 11 16 1 -5
BITMAP
C300
C300
C300
C300
C300
C300
C300
C300
E720
FDE0
D8C0
C000
C000
C000
C000
C000
ENDCHAR
STARTCHAR partialdiff
ENCODING 182
SWIDTH 494 0
DWIDTH 12 0
BBX 9 16 1 0
BITMAP
3800
0600
0300
0300
0180
0180
1D80
7F80
6180
C180
C180
C180
C300
C300
6600
3C00
ENDCHAR
STARTCHAR summation
ENCODING 183
SWIDTH 713 0
DWIDTH 17 0
BBX 13 18 1 -2
BITMAP
FFF8
6018
3008
1800
0C00
0600
0300
0180
0080
0100
0200
0400
0800
1000
2008
4018
FFF8
FFF8
ENDCHAR
STARTCHAR product
ENCODING 184
SWIDTH 823 0
DWIDTH 20 0
BBX 15 18 2 -2
BITMAP
FFFE
3018
3018
3018
3018
3018
3018
3018
3018
3018
3018
3018
3018
3018
3018
3018
3018
FC7E
ENDCHAR
STARTCHAR pi
ENCODING 185
SWIDTH 549 0
DWIDTH 14 0
BBX 13 11 0 0
BITMAP
3FF0
7FE0
98C0
18C0
18C0
18C0
18C0
18C0
18C8
38F0
3060
ENDCHAR
STARTCHAR integral
ENCODING 186
SWIDTH 274 0
DWIDTH 7 0
BBX 6 20 0 -4
BITMAP
0C
14
30
30
30
30
30
30
30
30
30
30
30
30
30
30
30
30
A0
C0
ENDCHAR
STARTCHAR ordfeminine
ENCODING 187
SWIDTH 276 0
DWIDTH 7 0
BBX 6 9 0 7
BITMAP
70
88
18
68
88
98
64
00
FC
ENDCHAR
STARTCHAR ordmasculine
ENCODING 188
SWIDTH 310 0
DWIDTH 7 0
BBX 6 9 0 7
BITMAP
30
48
84
84
84
48
30
00
FC
ENDCHAR
STARTCHAR Omega
ENCODING 189
SWIDTH 768 0
DWIDTH 18 0
BBX 16 16 1 0
BITMAP
07E0
1C38
381C
300C
700E
6006
6006
6006
6006
6006
2004
300C
1008
8811
7C3E
7C3E
ENDCHAR
STARTCHAR ae
ENCODING 190
SWIDTH 667 0
DWIDTH 16 0
BBX 14 11 1 0
BITMAP
79F0
C718
860C
060C
1FFC
6600
C604
C604
C70C
FBF8
71F0
ENDCHAR
STARTCHAR oslash
ENCODING 191
SWIDTH 500 0
DWIDTH 12 0
BBX 10 11 1 0
BITMAP
1E40
7380
6180
C2C0
C4C0
C8C0
C8C0
D0C0
6180
7380
9E00
ENDCHAR
STARTCHAR questiondown
ENCODING 192
SWIDTH 444 0
DWIDTH 11 0
BBX 8 17 2 -6
BITMAP
18
18
00
00
08
08
08
18
10
30
60
66
C7
C3
C3
66
3C
ENDCHAR
STARTCHAR exclamdown
ENCODING 193
SWIDTH 333 0
DWIDTH 8 0
BBX 3 17 2 -6
BITMAP
60
60
00
00
00
40
40
40
40
40
40
E0
E0
E0
E0
E0
40
ENDCHAR
STARTCHAR logicalnot
ENCODING 194
SWIDTH 564 0
DWIDTH 17 0
BBX 13 5 1 1
BITMAP
FFF8
0018
0018
0018
0018
ENDCHAR
STARTCHAR radical
ENCODING 195
SWIDTH 549 0
DWIDTH 13 0
BBX 13 18 0 0
BITMAP
0008
0018
0010
0030
0020
0060
0040
00C0
0080
0180
4100
E300
2200
3600
1C00
1C00
0800
0800
ENDCHAR
STARTCHAR florin
ENCODING 196
SWIDTH 500 0
DWIDTH 12 0
BBX 9 21 2 -5
BITMAP
0380
0580
0800
1800
1800
1800
FF00
1800
1800
1800
1800
1800
1800
1800
1800
1800
1800
1800
1800
D000
E000
ENDCHAR
STARTCHAR approxequal
ENCODING 197
SWIDTH 549 0
DWIDTH 13 0
BBX 13 7 0 2
BITMAP
3C08
4710
81E0
0000
3C08
4710
81E0
ENDCHAR
STARTCHAR Delta
ENCODING 198
SWIDTH 612 0
DWIDTH 15 0
BBX 15 16 0 0
BITMAP
0100
0100
0380
0380
04C0
04C0
0860
0860
1030
1030
2018
2018
400C
400C
8006
FFFE
ENDCHAR
STARTCHAR guillemotleft
ENCODING 199
SWIDTH 500 0
DWIDTH 12 0
BBX 10 10 1 0
BITMAP
0840
18C0
3180
6300
C600
C600
6300
3180
18C0
0840
ENDCHAR
STARTCHAR guillemotright
ENCODING 200
SWIDTH 500 0
DWIDTH 12 0
BBX 10 10 1 0
BITMAP
8400
C600
6300
3180
18C0
18C0
3180
6300
C600
8400
ENDCHAR
STARTCHAR ellipsis
ENCODING 201
SWIDTH 1000 0
DWIDTH 24 0
BBX 18 2 3 0
BITMAP
C0C0C0
C0C0C0
ENDCHAR
STARTCHAR nbspace
ENCODING 202
SWIDTH 250 0
DWIDTH 6 0
BBX 0 0 0 -6
BITMAP
ENDCHAR
STARTCHAR Agrave
ENCODING 203
SWIDTH 722 0
DWIDTH 17 0
BBX 17 18 0 0
BITMAP
010000
008000
00C000
008000
01C000
01C000
016000
026000
027000
043000
043800
081800
0FFC00
100C00
100C00
200600
200600
F83F80
ENDCHAR
STARTCHAR Atilde
ENCODING 204
SWIDTH 722 0
DWIDTH 17 0
BBX 17 18 0 0
BITMAP
038800
047000
008000
008000
01C000
01C000
016000
026000
027000
043000
043800
081800
0FFC00
100C00
100C00
200600
200600
F83F80
ENDCHAR
STARTCHAR Otilde
ENCODING 205
SWIDTH 722 0
DWIDTH 17 0
BBX 15 18 1 0
BITMAP
0E20
11C0
07C0
1830
3018
600C
600C
C006
C006
C006
C006
C006
C006
600C
600C
3018
1830
07C0
ENDCHAR
STARTCHAR OE
ENCODING 206
SWIDTH 889 0
DWIDTH 21 0
BBX 20 16 0 0
BITMAP
07FFF0
187030
303010
603000
603000
C03040
C030C0
C03FC0
C030C0
C03040
C03000
603000
603000
303010
187030
07FFF0
ENDCHAR
STARTCHAR oe
ENCODING 207
SWIDTH 722 0
DWIDTH 17 0
BBX 15 11 1 0
BITMAP
1C78
62CC
4186
C186
C1FE
C180
C180
C182
41C6
62FC
1C78
ENDCHAR
STARTCHAR endash
ENCODING 208
SWIDTH 500 0
DWIDTH 12 0
BBX 11 1 0 5
BITMAP
FFE0
ENDCHAR
STARTCHAR emdash
ENCODING 209
SWIDTH 1000 0
DWIDTH 24 0
BBX 21 1 1 5
BITMAP
FFFFF8
ENDCHAR
STARTCHAR quotedblleft
ENCODING 210
SWIDTH 444 0
DWIDTH 11 0
BBX 6 5 1 11
BITMAP
44
88
88
CC
44
ENDCHAR
STARTCHAR quotedblright
ENCODING 211
SWIDTH 444 0
DWIDTH 11 0
BBX 6 5 2 11
BITMAP
88
CC
44
44
88
ENDCHAR
STARTCHAR quoteleft
ENCODING 212
SWIDTH 333 0
DWIDTH 8 0
BBX 2 5 3 11
BITMAP
40
80
80
C0
40
ENDCHAR
STARTCHAR quoteright
ENCODING 213
SWIDTH 333 0
DWIDTH 8 0
BBX 2 5 2 11
BITMAP
80
C0
40
40
80
ENDCHAR
STARTCHAR divide
ENCODING 214
SWIDTH 549 0
DWIDTH 13 0
BBX 12 9 0 1
BITMAP
0600
0600
0000
0000
FFF0
0000
0000
0600
0600
ENDCHAR
STARTCHAR lozenge
ENCODING 215
SWIDTH 494 0
DWIDTH 12 0
BBX 9 16 1 0
BITMAP
0800
0800
1C00
1400
2600
4300
4100
8180
8180
4100
4300
2600
1400
1C00
0800
0800
ENDCHAR
STARTCHAR ydieresis
ENCODING 216
SWIDTH 500 0
DWIDTH 12 0
BBX 12 20 0 -6
BITMAP
1080
0000
0000
F9F0
6020
3040
3040
1880
1880
0D00
0F00
0600
0600
0400
0C00
0800
1000
3000
E000
C000
ENDCHAR
STARTCHAR Ydieresis
ENCODING 217
SWIDTH 722 0
DWIDTH 17 0
BBX 15 18 1 0
BITMAP
0220
0000
FC3E
3808
1808
0C10
0C10
0620
0620
0340
03C0
0180
0180
0180
0180
0180
0180
07E0
ENDCHAR
STARTCHAR fraction
ENCODING 218
SWIDTH 167 0
DWIDTH 4 0
BBX 3 16 0 0
BITMAP
20
20
20
20
20
40
40
40
40
40
40
80
80
80
80
80
ENDCHAR
STARTCHAR currency
ENCODING 219
SWIDTH 500 0
DWIDTH 12 0
BBX 9 9 1 3
BITMAP
9C80
7700
6300
C180
C180
C180
6300
7700
9C80
ENDCHAR
STARTCHAR guilsinglleft
ENCODING 220
SWIDTH 333 0
DWIDTH 8 0
BBX 6 11 1 0
BITMAP
04
0C
18
30
60
C0
60
30
18
0C
04
ENDCHAR
STARTCHAR guilsinglright
ENCODING 221
SWIDTH 333 0
DWIDTH 8 0
BBX 6 11 1 0
BITMAP
80
C0
60
30
18
0C
18
30
60
C0
80
ENDCHAR
STARTCHAR fi
ENCODING 222
SWIDTH 556 0
DWIDTH 13 0
BBX 12 16 0 0
BITMAP
0F00
1180
3080
3000
3000
FFC0
30C0
30C0
30C0
30C0
30C0
30C0
30C0
30C0
30C0
FFF0
ENDCHAR
STARTCHAR fl
ENCODING 223
SWIDTH 556 0
DWIDTH 13 0
BBX 12 16 0 0
BITMAP
0FC0
11C0
30C0
30C0
30C0
FFC0
30C0
30C0
30C0
30C0
30C0
30C0
30C0
30C0
30C0
FFF0
ENDCHAR
STARTCHAR daggerdbl
ENCODING 224
SWIDTH 500 0
DWIDTH 12 0
BBX 8 21 1 -4
BITMAP
18
18
18
18
18
FF
18
18
18
18
18
18
18
18
18
FF
18
18
18
18
18
ENDCHAR
STARTCHAR periodcentered
ENCODING 225
SWIDTH 250 0
DWIDTH 8 0
BBX 2 2 3 7
BITMAP
C0
C0
ENDCHAR
STARTCHAR quotesinglbase
ENCODING 226
SWIDTH 333 0
DWIDTH 8 0
BBX 2 5 3 -3
BITMAP
C0
C0
40
40
80
ENDCHAR
STARTCHAR quotedblbase
ENCODING 227
SWIDTH 444 0
DWIDTH 11 0
BBX 6 5 2 -3
BITMAP
CC
CC
44
44
88
ENDCHAR
STARTCHAR perthousand
ENCODING 228
SWIDTH 1000 0
DWIDTH 24 0
BBX 23 17 0 0
BITMAP
000200
1E3C00
73C800
631800
E33000
C32000
C66000
C6C000
4D9C38
3B7264
0362C6
06E3C6
0CC386
0CC78C
18C68C
104C98
203870
ENDCHAR
STARTCHAR Acircumflex
ENCODING 229
SWIDTH 722 0
DWIDTH 17 0
BBX 17 18 0 0
BITMAP
008000
014000
02A000
008000
01C000
01C000
016000
026000
023000
043000
041800
081800
0FFC00
100C00
100C00
200600
200600
F83F80
ENDCHAR
STARTCHAR Ecircumflex
ENCODING 230
SWIDTH 611 0
DWIDTH 15 0
BBX 12 18 1 0
BITMAP
0200
0500
FFF0
3030
3010
3000
3000
3040
30C0
3FC0
30C0
3040
3000
3000
3010
3010
3030
FFF0
ENDCHAR
STARTCHAR Aacute
ENCODING 231
SWIDTH 722 0
DWIDTH 17 0
BBX 17 18 0 0
BITMAP
004000
008000
018000
008000
01C000
01C000
016000
026000
027000
043000
043000
081800
0FF800
180C00
100C00
300600
200600
F83F80
ENDCHAR
STARTCHAR Edieresis
ENCODING 232
SWIDTH 611 0
DWIDTH 15 0
BBX 12 18 1 0
BITMAP
0880
0000
FFF0
3030
3010
3000
3000
3040
30C0
3FC0
30C0
3040
3000
3000
3010
3010
3030
FFF0
ENDCHAR
STARTCHAR Egrave
ENCODING 233
SWIDTH 611 0
DWIDTH 15 0
BBX 12 18 1 0
BITMAP
0400
0200
FFF0
3030
3010
3000
3000
3040
30C0
3FC0
30C0
3040
3000
3000
3010
3010
3030
FFF0
ENDCHAR
STARTCHAR Iacute
ENCODING 234
SWIDTH 333 0
DWIDTH 8 0
BBX 6 18 1 0
BITMAP
10
20
FC
30
30
30
30
30
30
30
30
30
30
30
30
30
30
FC
ENDCHAR
STARTCHAR Icircumflex
ENCODING 235
SWIDTH 333 0
DWIDTH 8 0
BBX 6 18 1 0
BITMAP
30
48
FC
30
30
30
30
30
30
30
30
30
30
30
30
30
30
FC
ENDCHAR
STARTCHAR Idieresis
ENCODING 236
SWIDTH 333 0
DWIDTH 8 0
BBX 6 18 1 0
BITMAP
48
00
FC
30
30
30
30
30
30
30
30
30
30
30
30
30
30
FC
ENDCHAR
STARTCHAR Igrave
ENCODING 237
SWIDTH 333 0
DWIDTH 8 0
BBX 6 18 1 0
BITMAP
20
10
FC
30
30
30
30
30
30
30
30
30
30
30
30
30
30
FC
ENDCHAR
STARTCHAR Oacute
ENCODING 238
SWIDTH 722 0
DWIDTH 17 0
BBX 15 18 1 0
BITMAP
0080
0100
07C0
1830
3018
600C
600C
C006
C006
C006
C006
C006
C006
600C
600C
3018
1830
07C0
ENDCHAR
STARTCHAR Ocircumflex
ENCODING 239
SWIDTH 722 0
DWIDTH 17 0
BBX 15 18 1 0
BITMAP
0100
0280
07C0
1830
3018
600C
600C
C006
C006
C006
C006
C006
C006
600C
600C
3018
1830
07C0
ENDCHAR
STARTCHAR apple
ENCODING 240
SWIDTH 790 0
DWIDTH 19 0
BBX 15 17 2 0
BITMAP
0070
00E0
00C0
3EB8
7F7C
FFFE
FFF8
FFF0
FFF0
FFF8
FFFE
FFFE
FFFE
7FFC
7FFC
3FF8
1E70
ENDCHAR
STARTCHAR Ograve
ENCODING 241
SWIDTH 722 0
DWIDTH 17 0
BBX 15 18 1 0
BITMAP
0200
0100
07C0
1830
3018
600C
600C
C006
C006
C006
C006
C006
C006
600C
600C
3018
1830
07C0
ENDCHAR
STARTCHAR Uacute
ENCODING 242
SWIDTH 722 0
DWIDTH 17 0
BBX 16 18 0 0
BITMAP
0040
0080
FC1F
3004
3004
3004
3004
3004
3004
3004
3004
3004
3004
3004
3004
1808
1C18
07E0
ENDCHAR
STARTCHAR Ucircumflex
ENCODING 243
SWIDTH 722 0
DWIDTH 17 0
BBX 16 18 0 0
BITMAP
0080
0140
FA2F
3004
3004
3004
3004
3004
3004
3004
3004
3004
3004
3004
3004
1808
1C18
07E0
ENDCHAR
STARTCHAR Ugrave
ENCODING 244
SWIDTH 722 0
DWIDTH 17 0
BBX 16 18 0 0
BITMAP
0100
0080
FC1F
3004
3004
3004
3004
3004
3004
3004
3004
3004
3004
3004
3004
1808
1C18
07E0
ENDCHAR
STARTCHAR dotlessi
ENCODING 245
SWIDTH 278 0
DWIDTH 7 0
BBX 6 11 0 0
BITMAP
10
30
F0
30
30
30
30
30
30
30
FC
ENDCHAR
STARTCHAR circumflex
ENCODING 246
SWIDTH 333 0
DWIDTH 8 0
BBX 5 3 1 13
BITMAP
20
70
D8
ENDCHAR
STARTCHAR tilde
ENCODING 247
SWIDTH 333 0
DWIDTH 8 0
BBX 7 2 0 13
BITMAP
72
9C
ENDCHAR
STARTCHAR macron
ENCODING 248
SWIDTH 333 0
DWIDTH 8 0
BBX 5 1 1 14
BITMAP
F8
ENDCHAR
STARTCHAR breve
ENCODING 249
SWIDTH 333 0
DWIDTH 8 0
BBX 5 2 1 13
BITMAP
88
70
ENDCHAR
STARTCHAR dotaccent
ENCODING 250
SWIDTH 333 0
DWIDTH 8 0
BBX 2 2 2 13
BITMAP
C0
C0
ENDCHAR
STARTCHAR ring
ENCODING 251
SWIDTH 333 0
DWIDTH 8 0
BBX 4 4 1 12
BITMAP
60
90
90
60
ENDCHAR
STARTCHAR cedilla
ENCODING 252
SWIDTH 333 0
DWIDTH 8 0
BBX 4 6 2 -5
BITMAP
C0
E0
30
30
B0
60
ENDCHAR
STARTCHAR hungarumlaut
ENCODING 253
SWIDTH 333 0
DWIDTH 8 0
BBX 5 4 1 12
BITMAP
48
48
90
90
ENDCHAR
STARTCHAR ogonek
ENCODING 254
SWIDTH 333 0
DWIDTH 8 0
BBX 5 4 2 -4
BITMAP
60
C0
C8
70
ENDCHAR
STARTCHAR caron
ENCODING 255
SWIDTH 333 0
DWIDTH 7 0
BBX 5 3 1 13
BITMAP
D8
70
20
ENDCHAR
ENDFONT
